<svg width="253" height="361" viewBox="0 0 253 361" fill="none" xmlns="http://www.w3.org/2000/svg">
<g filter="url(#filter0_f_97_121)">
<path d="M87.011 345.5C86.6776 343.333 93.811 339 125.011 339C138.011 339 164.011 340.3 164.011 345.5C164.011 347.833 156.211 352.5 125.011 352.5C112.344 352.167 87.011 350.3 87.011 345.5Z" fill="#E0E5EB"/>
</g>
<path d="M192 167.817C202.5 178.817 204.833 190.484 205 192.817C206.6 206.017 204.667 218.984 203.5 223.817L209.5 254.317C217.1 282.681 232 286.469 238.5 284.817C255.3 280.017 253.167 254.817 250 242.817C240.8 206.017 225.5 184.484 219 178.317C206.6 165.917 195.833 166.15 192 167.817Z" fill="url(#paint0_linear_97_121)"/>
<path d="M60.1842 167.817C49.6842 178.817 47.3509 190.484 47.1842 192.817C45.5842 206.017 47.5175 218.984 48.6842 223.817L42.6842 254.317C35.0842 282.681 20.1842 286.469 13.6842 284.817C-3.1158 280.017 -0.982464 254.817 2.1842 242.817C11.3842 206.017 26.6842 184.484 33.1842 178.317C45.5842 165.917 56.3509 166.15 60.1842 167.817Z" fill="url(#paint1_linear_97_121)"/>
<path d="M49 241C64.2 245.8 81 249 87.5 250.5V260.5C117.1 264.1 150.167 262 163 260.5V250.5C181.8 248.1 197.167 244.5 202.5 242C200.389 251.5 188.668 306.207 138.5 314.087C134.711 314.682 130.714 315 126.5 315C66.5 315 50.2401 248.263 49 241Z" fill="url(#paint2_linear_97_121)"/>
<path d="M92 154C87.8573 154 83.2132 154.652 78.5 155.967C62.1652 160.524 45 173.046 45 194C45 216 47.8333 234.167 49 241C65.8 246.2 80.6667 250.844 87 252.178V261.178C117 265.678 131 266.5 163.5 261.5V252.5C181.5 248.5 197 243.833 202.5 242C202.574 241.668 202.647 241.334 202.718 241C206.537 223.211 207.5 202.343 207.5 194C207.5 166 175.5 154 159.5 154C159.5 172.4 145.187 178.25 126 178.5C106.813 178.75 92 170.5 92 154Z" fill="url(#paint3_linear_97_121)"/>
<path d="M126.5 315C66.5 315 50.2401 248.263 49 241C47.8333 234.167 45 216 45 194C45 173.046 62.1652 160.524 78.5 155.967C69.7 171.993 67.8022 186.009 67.5 191C65.1573 229.693 73.5444 258.494 82 274C90.4556 289.506 103 298.833 109.5 303.5C119.5 309.9 133 313.224 138.5 314.087C134.711 314.682 130.714 315 126.5 315Z" fill="url(#paint4_linear_97_121)"/>
<path fill-rule="evenodd" clip-rule="evenodd" d="M161 148C133.424 152.509 102.843 149.879 91 148V157.018C91 173.364 105.318 179 125.47 179C146.682 179 161 173.702 161 157.018V148Z" fill="url(#paint5_linear_97_121)"/>
<path d="M169.115 184.762C166.615 182.928 160.542 175.834 166.615 169.762C169.615 166.762 173.615 166.119 178.615 168.262C186 171.426 193.724 179.289 197.115 192.262C198.615 198 200.215 205.062 198.615 216.262C198.282 218.595 197.002 223.51 194.615 223.262C193.339 223.129 192.069 221.033 191.115 216.262C190.115 211.262 186.975 204.052 185.115 201.262C184.726 200.678 184.367 200.136 184.037 199.637C180.135 193.737 179.808 193.242 169.115 184.762Z" fill="#EFF0F5"/>
<path d="M202.714 241C187.114 245.8 169.548 250.5 162.715 252V261C131.115 267.4 99.8812 263.667 88.2146 261V252C73.0146 248.8 55.6882 243.333 49.0215 241L49.5215 243.5C64.7215 248.7 80.3812 252.167 86.2146 253.5V262.5C118.215 269.3 151.881 265.333 164.715 262.5V254C180.109 250.21 195.995 245.681 202.162 243.514L202.714 241Z" fill="url(#paint6_radial_97_121)"/>
<path d="M32.0055 55V106.5C19.6055 106.5 16.1722 97.1667 16.0055 92.5V69C16.0055 57.8 26.6722 55 32.0055 55Z" fill="url(#paint7_linear_97_121)"/>
<path d="M91.0055 18C91.0055 6.2099 106.337 0.212216 125.005 0.00535373C143.674 -0.201508 159.005 5.58939 159.005 16.759L91.0055 18Z" fill="url(#paint8_linear_97_121)"/>
<path d="M219.005 55V106.5C231.405 106.5 234.839 97.1667 235.005 92.5V69C235.005 57.8 224.339 55 219.005 55Z" fill="url(#paint9_linear_97_121)"/>
<path d="M30.0928 62.5C29.6928 32.5 60.5085 18.1613 89.0094 15.2377C104.008 13.699 141.508 13.4795 157.508 15.2376C185.509 18.3143 221.593 31.2623 221.593 62.5C221.593 101.076 221.509 90.0636 221.509 111.738C221.509 142.458 173.983 146.92 151.509 149.238C129.036 151.555 113.009 151.439 93.5093 149.238C74.0093 147.036 30.0092 138.958 30.0092 112.238C30.0092 90.5636 30.3818 84.1722 30.0928 62.5Z" fill="url(#paint10_linear_97_121)"/>
<path d="M40.0055 68V109.5C40.0055 142.5 101.505 142.5 125.005 142.5C148.505 142.5 212.005 142.5 212.005 109.5V68C212.005 48 179.005 37 125.005 37C71.0055 37 40.0055 48 40.0055 68Z" fill="#0C1C27"/>
<g filter="url(#filter1_d_97_121)">
<path d="M78.0055 84.5C78.0055 74.9 86.3388 72.1667 90.5055 72C101.705 72 104.172 80.3333 104.005 84.5C104.005 86.9 104.085 87.3055 103.005 88.5C101.303 90.3832 99.47 89.6009 96.5055 88.5C92.7946 87.1219 89.2687 87.2279 85.5055 88.5C82.3332 89.5723 81.4551 89.7997 79.5055 88.5C78.0055 87.5 78.0055 84.5 78.0055 84.5Z" fill="url(#paint11_radial_97_121)"/>
</g>
<g filter="url(#filter2_d_97_121)">
<path d="M146.005 84.5C146.005 74.9 154.339 72.1667 158.505 72C169.705 72 172.172 80.3333 172.005 84.5C172.005 86.9 172.085 87.3055 171.005 88.5C169.303 90.3832 167.47 89.6009 164.505 88.5C160.795 87.1219 157.269 87.2279 153.505 88.5C150.333 89.5723 149.455 89.7997 147.505 88.5C146.005 87.5 146.005 84.5 146.005 84.5Z" fill="url(#paint12_radial_97_121)"/>
</g>
<g filter="url(#filter3_d_97_121)">
<path d="M116.505 111H134.005C135.605 111 136.005 112 136.005 112.5C136.005 120.9 129.005 123 125.505 123C117.105 123 115.005 116 115.005 112.5C115.005 111.3 116.005 111 116.505 111Z" fill="url(#paint13_radial_97_121)"/>
</g>
<defs>
<filter id="filter0_f_97_121" x="78.9" y="330.9" width="93.211" height="29.7" filterUnits="userSpaceOnUse" color-interpolation-filters="sRGB">
<feFlood flood-opacity="0" result="BackgroundImageFix"/>
<feBlend mode="normal" in="SourceGraphic" in2="BackgroundImageFix" result="shape"/>
<feGaussianBlur stdDeviation="4.05" result="effect1_foregroundBlur_97_121"/>
</filter>
<filter id="filter1_d_97_121" x="38.0055" y="32" width="106.008" height="97.6376" filterUnits="userSpaceOnUse" color-interpolation-filters="sRGB">
<feFlood flood-opacity="0" result="BackgroundImageFix"/>
<feColorMatrix in="SourceAlpha" type="matrix" values="0 0 0 0 0 0 0 0 0 0 0 0 0 0 0 0 0 0 127 0" result="hardAlpha"/>
<feOffset/>
<feGaussianBlur stdDeviation="20"/>
<feComposite in2="hardAlpha" operator="out"/>
<feColorMatrix type="matrix" values="0 0 0 0 0.584314 0 0 0 0 0.960784 0 0 0 0 1 0 0 0 1 0"/>
<feBlend mode="normal" in2="BackgroundImageFix" result="effect1_dropShadow_97_121"/>
<feBlend mode="normal" in="SourceGraphic" in2="effect1_dropShadow_97_121" result="shape"/>
</filter>
<filter id="filter2_d_97_121" x="106.005" y="32" width="106.008" height="97.6376" filterUnits="userSpaceOnUse" color-interpolation-filters="sRGB">
<feFlood flood-opacity="0" result="BackgroundImageFix"/>
<feColorMatrix in="SourceAlpha" type="matrix" values="0 0 0 0 0 0 0 0 0 0 0 0 0 0 0 0 0 0 127 0" result="hardAlpha"/>
<feOffset/>
<feGaussianBlur stdDeviation="20"/>
<feComposite in2="hardAlpha" operator="out"/>
<feColorMatrix type="matrix" values="0 0 0 0 0.584314 0 0 0 0 0.960784 0 0 0 0 1 0 0 0 1 0"/>
<feBlend mode="normal" in2="BackgroundImageFix" result="effect1_dropShadow_97_121"/>
<feBlend mode="normal" in="SourceGraphic" in2="effect1_dropShadow_97_121" result="shape"/>
</filter>
<filter id="filter3_d_97_121" x="75.0055" y="71" width="101" height="92" filterUnits="userSpaceOnUse" color-interpolation-filters="sRGB">
<feFlood flood-opacity="0" result="BackgroundImageFix"/>
<feColorMatrix in="SourceAlpha" type="matrix" values="0 0 0 0 0 0 0 0 0 0 0 0 0 0 0 0 0 0 127 0" result="hardAlpha"/>
<feOffset/>
<feGaussianBlur stdDeviation="20"/>
<feComposite in2="hardAlpha" operator="out"/>
<feColorMatrix type="matrix" values="0 0 0 0 0.360784 0 0 0 0 0.886275 0 0 0 0 0.941176 0 0 0 1 0"/>
<feBlend mode="normal" in2="BackgroundImageFix" result="effect1_dropShadow_97_121"/>
<feBlend mode="normal" in="SourceGraphic" in2="effect1_dropShadow_97_121" result="shape"/>
</filter>
<linearGradient id="paint0_linear_97_121" x1="192.184" y1="167" x2="243.184" y2="285" gradientUnits="userSpaceOnUse">
<stop stop-color="#ABAFBA"/>
<stop offset="1" stop-color="#E0E5EB"/>
</linearGradient>
<linearGradient id="paint1_linear_97_121" x1="60.0001" y1="167" x2="9.00012" y2="285" gradientUnits="userSpaceOnUse">
<stop stop-color="#ABAFBA"/>
<stop offset="1" stop-color="#E0E5EB"/>
</linearGradient>
<linearGradient id="paint2_linear_97_121" x1="168.5" y1="157.5" x2="104" y2="311" gradientUnits="userSpaceOnUse">
<stop stop-color="#E0E5EB"/>
<stop offset="1" stop-color="#ABAFBA"/>
</linearGradient>
<linearGradient id="paint3_linear_97_121" x1="168.5" y1="157.5" x2="104" y2="311" gradientUnits="userSpaceOnUse">
<stop stop-color="#E0E5EB"/>
<stop offset="1" stop-color="#ABAFBA"/>
</linearGradient>
<linearGradient id="paint4_linear_97_121" x1="49.1224" y1="140.754" x2="126.372" y2="315" gradientUnits="userSpaceOnUse">
<stop stop-color="#E0E5EB"/>
<stop offset="0.923077" stop-color="#ABAFBA"/>
</linearGradient>
<linearGradient id="paint5_linear_97_121" x1="126" y1="148" x2="126" y2="179" gradientUnits="userSpaceOnUse">
<stop stop-color="#E0E5EB"/>
<stop offset="1" stop-color="#ABAFBA"/>
</linearGradient>
<radialGradient id="paint6_radial_97_121" cx="0" cy="0" r="1" gradientUnits="userSpaceOnUse" gradientTransform="translate(126 266) rotate(-16.4915) scale(79.2606 13.0785)">
<stop stop-color="#BBBFC4"/>
<stop offset="1" stop-color="#A1A5B0"/>
</radialGradient>
<linearGradient id="paint7_linear_97_121" x1="16.0055" y1="81" x2="30.5055" y2="81" gradientUnits="userSpaceOnUse">
<stop stop-color="#E0E5EB"/>
<stop offset="1" stop-color="#ABAFBA"/>
</linearGradient>
<linearGradient id="paint8_linear_97_121" x1="125.005" y1="0" x2="125.005" y2="14" gradientUnits="userSpaceOnUse">
<stop stop-color="#E0E5EB"/>
<stop offset="1" stop-color="#ABAFBA"/>
</linearGradient>
<linearGradient id="paint9_linear_97_121" x1="235.005" y1="81" x2="222.005" y2="81" gradientUnits="userSpaceOnUse">
<stop stop-color="#E0E5EB"/>
<stop offset="1" stop-color="#ABAFBA"/>
</linearGradient>
<linearGradient id="paint10_linear_97_121" x1="125.757" y1="14" x2="125.757" y2="150.933" gradientUnits="userSpaceOnUse">
<stop stop-color="#E0E5EB"/>
<stop offset="1" stop-color="#ABAFBA"/>
</linearGradient>
<radialGradient id="paint11_radial_97_121" cx="0" cy="0" r="1" gradientUnits="userSpaceOnUse" gradientTransform="translate(-48.4906 137.819) scale(8.81882 13.0039)">
<stop stop-color="#9BF5FD"/>
<stop offset="1" stop-color="#5CE2F0"/>
</radialGradient>
<radialGradient id="paint12_radial_97_121" cx="0" cy="0" r="1" gradientUnits="userSpaceOnUse" gradientTransform="translate(19.5094 137.819) scale(8.81882 13.0039)">
<stop stop-color="#9BF5FD"/>
<stop offset="1" stop-color="#5CE2F0"/>
</radialGradient>
<radialGradient id="paint13_radial_97_121" cx="0" cy="0" r="1" gradientUnits="userSpaceOnUse" gradientTransform="translate(125.505 117) rotate(90) scale(6 10.5)">
<stop stop-color="#93F4FD"/>
<stop offset="1" stop-color="#60E4F1"/>
</radialGradient>
</defs>
</svg>
