<svg width="330" height="361" viewBox="0 0 330 361" fill="none" xmlns="http://www.w3.org/2000/svg">
<g filter="url(#filter0_f_144_3411)">
<path d="M126.011 345.5C125.678 343.333 132.811 339 164.011 339C177.011 339 203.011 340.3 203.011 345.5C203.011 347.833 195.211 352.5 164.011 352.5C151.344 352.167 126.011 350.3 126.011 345.5Z" fill="#E0E5EB"/>
</g>
<path d="M237.07 163.896C233.468 167.064 219.692 175.292 228.184 185.754C236.676 196.217 240.183 194.286 256.953 189.159C262.23 187.697 273.102 182.71 286.558 172.622C295.12 166.203 304.728 157.719 314.605 146.763C323.035 137.654 336.749 116.405 324.169 104.28C319.205 99.7702 304.271 96.1198 284.245 117.595C284.245 117.595 271.131 132.885 262.265 141.177C254.194 148.725 247.053 155.113 237.07 163.896Z" fill="url(#paint0_linear_144_3411)"/>
<path d="M93.1142 163.896C96.7159 167.064 110.492 175.292 102 185.754C93.5082 196.217 90.001 194.286 73.2311 189.159C67.9545 187.697 57.0816 182.71 43.6261 172.622C35.064 166.203 25.456 157.719 15.5788 146.763C7.14917 137.654 -6.56518 116.405 6.01487 104.28C10.9787 99.7702 25.913 96.1198 45.9393 117.595C45.9393 117.595 59.053 132.885 67.9191 141.177C75.9902 148.725 83.1312 155.113 93.1142 163.896Z" fill="url(#paint1_linear_144_3411)"/>
<path d="M88 241C103.2 245.8 120 249 126.5 250.5V260.5C156.1 264.1 189.167 262 202 260.5V250.5C220.8 248.1 236.167 244.5 241.5 242C239.389 251.5 227.668 306.207 177.5 314.087C173.711 314.682 169.714 315 165.5 315C105.5 315 89.2401 248.263 88 241Z" fill="url(#paint2_linear_144_3411)"/>
<path d="M131 154C126.857 154 122.213 154.652 117.5 155.967C101.165 160.524 84 173.046 84 194C84 216 86.8333 234.167 88 241C104.8 246.2 119.667 250.844 126 252.178V261.178C156 265.678 170 266.5 202.5 261.5V252.5C220.5 248.5 236 243.833 241.5 242C241.574 241.668 241.647 241.334 241.718 241C245.537 223.211 246.5 202.343 246.5 194C246.5 166 214.5 154 198.5 154C198.5 172.4 184.187 178.25 165 178.5C145.813 178.75 131 170.5 131 154Z" fill="url(#paint3_linear_144_3411)"/>
<path d="M165.5 315C105.5 315 89.2401 248.263 88 241C86.8333 234.167 84 216 84 194C84 173.046 101.165 160.524 117.5 155.967C108.7 171.993 106.802 186.009 106.5 191C104.157 229.693 112.544 258.494 121 274C129.456 289.506 142 298.833 148.5 303.5C158.5 309.9 172 313.224 177.5 314.087C173.711 314.682 169.714 315 165.5 315Z" fill="url(#paint4_linear_144_3411)"/>
<path fill-rule="evenodd" clip-rule="evenodd" d="M200 148C172.424 152.509 141.843 149.879 130 148V157.018C130 173.364 144.318 179 164.47 179C185.682 179 200 173.702 200 157.018V148Z" fill="url(#paint5_linear_144_3411)"/>
<path d="M208.115 184.762C205.615 182.928 199.542 175.834 205.615 169.762C208.615 166.762 212.615 166.119 217.615 168.262C225 171.426 232.724 179.289 236.115 192.262C237.615 198 239.215 205.062 237.615 216.262C237.282 218.595 236.002 223.51 233.615 223.262C232.339 223.129 231.069 221.033 230.115 216.262C229.115 211.262 225.975 204.052 224.115 201.262C223.726 200.678 223.367 200.136 223.037 199.637C219.135 193.737 218.808 193.242 208.115 184.762Z" fill="#EFF0F5"/>
<path d="M241.714 241C226.114 245.8 208.548 250.5 201.715 252V261C170.115 267.4 138.881 263.667 127.215 261V252C112.015 248.8 94.6882 243.333 88.0215 241L88.5215 243.5C103.722 248.7 119.381 252.167 125.215 253.5V262.5C157.215 269.3 190.881 265.333 203.715 262.5V254C219.109 250.21 234.995 245.681 241.162 243.514L241.714 241Z" fill="url(#paint6_radial_144_3411)"/>
<path d="M71.0054 55V106.5C58.6054 106.5 55.172 97.1667 55.0054 92.5V69C55.0054 57.8 65.672 55 71.0054 55Z" fill="url(#paint7_linear_144_3411)"/>
<path d="M130.005 18C130.005 6.2099 145.337 0.212216 164.005 0.00535373C182.674 -0.201508 198.005 5.58939 198.005 16.759L130.005 18Z" fill="url(#paint8_linear_144_3411)"/>
<path d="M258.005 55V106.5C270.405 106.5 273.839 97.1667 274.005 92.5V69C274.005 57.8 263.339 55 258.005 55Z" fill="url(#paint9_linear_144_3411)"/>
<path d="M69.0927 62.5C68.6927 32.5 99.5084 18.1613 128.009 15.2377C143.008 13.699 180.508 13.4795 196.508 15.2376C224.509 18.3143 260.593 31.2623 260.593 62.5C260.593 101.076 260.509 90.0636 260.509 111.738C260.509 142.458 212.983 146.92 190.509 149.238C168.035 151.555 152.009 151.439 132.509 149.238C113.009 147.036 69.009 138.958 69.009 112.238C69.009 90.5636 69.3817 84.1722 69.0927 62.5Z" fill="url(#paint10_linear_144_3411)"/>
<path d="M79.0054 68V109.5C79.0054 142.5 140.505 142.5 164.005 142.5C187.505 142.5 251.005 142.5 251.005 109.5V68C251.005 48 218.005 37 164.005 37C110.005 37 79.0054 48 79.0054 68Z" fill="#0C1C27"/>
<g filter="url(#filter1_d_144_3411)">
<path d="M117.005 84.5C117.005 74.9 125.339 72.1667 129.505 72C140.705 72 143.172 80.3333 143.005 84.5C143.005 86.9 143.085 87.3055 142.005 88.5C140.303 90.3832 138.47 89.6009 135.505 88.5C131.794 87.1219 128.269 87.2279 124.505 88.5C121.333 89.5723 120.455 89.7997 118.505 88.5C117.005 87.5 117.005 84.5 117.005 84.5Z" fill="url(#paint11_radial_144_3411)"/>
</g>
<g filter="url(#filter2_d_144_3411)">
<path d="M185.005 84.5C185.005 74.9 193.339 72.1667 197.505 72C208.705 72 211.172 80.3333 211.005 84.5C211.005 86.9 211.085 87.3055 210.005 88.5C208.303 90.3832 206.47 89.6009 203.505 88.5C199.794 87.1219 196.269 87.2279 192.505 88.5C189.333 89.5723 188.455 89.7997 186.505 88.5C185.005 87.5 185.005 84.5 185.005 84.5Z" fill="url(#paint12_radial_144_3411)"/>
</g>
<g filter="url(#filter3_d_144_3411)">
<path d="M155.505 111C155.505 111 160.916 113.071 164.505 113C168.095 112.929 173.005 111 173.005 111C174.605 111 175.005 112 175.005 112.5C175.005 120.9 168.005 123 164.505 123C156.105 123 154.005 116 154.005 112.5C154.005 111.3 155.005 111 155.505 111Z" fill="url(#paint13_radial_144_3411)"/>
</g>
<defs>
<filter id="filter0_f_144_3411" x="117.9" y="330.9" width="93.211" height="29.7" filterUnits="userSpaceOnUse" color-interpolation-filters="sRGB">
<feFlood flood-opacity="0" result="BackgroundImageFix"/>
<feBlend mode="normal" in="SourceGraphic" in2="BackgroundImageFix" result="shape"/>
<feGaussianBlur stdDeviation="4.05" result="effect1_foregroundBlur_144_3411"/>
</filter>
<filter id="filter1_d_144_3411" x="77.0054" y="32" width="106.008" height="97.6376" filterUnits="userSpaceOnUse" color-interpolation-filters="sRGB">
<feFlood flood-opacity="0" result="BackgroundImageFix"/>
<feColorMatrix in="SourceAlpha" type="matrix" values="0 0 0 0 0 0 0 0 0 0 0 0 0 0 0 0 0 0 127 0" result="hardAlpha"/>
<feOffset/>
<feGaussianBlur stdDeviation="20"/>
<feComposite in2="hardAlpha" operator="out"/>
<feColorMatrix type="matrix" values="0 0 0 0 0.584314 0 0 0 0 0.960784 0 0 0 0 1 0 0 0 1 0"/>
<feBlend mode="normal" in2="BackgroundImageFix" result="effect1_dropShadow_144_3411"/>
<feBlend mode="normal" in="SourceGraphic" in2="effect1_dropShadow_144_3411" result="shape"/>
</filter>
<filter id="filter2_d_144_3411" x="145.005" y="32" width="106.008" height="97.6376" filterUnits="userSpaceOnUse" color-interpolation-filters="sRGB">
<feFlood flood-opacity="0" result="BackgroundImageFix"/>
<feColorMatrix in="SourceAlpha" type="matrix" values="0 0 0 0 0 0 0 0 0 0 0 0 0 0 0 0 0 0 127 0" result="hardAlpha"/>
<feOffset/>
<feGaussianBlur stdDeviation="20"/>
<feComposite in2="hardAlpha" operator="out"/>
<feColorMatrix type="matrix" values="0 0 0 0 0.584314 0 0 0 0 0.960784 0 0 0 0 1 0 0 0 1 0"/>
<feBlend mode="normal" in2="BackgroundImageFix" result="effect1_dropShadow_144_3411"/>
<feBlend mode="normal" in="SourceGraphic" in2="effect1_dropShadow_144_3411" result="shape"/>
</filter>
<filter id="filter3_d_144_3411" x="114.005" y="71" width="101" height="92" filterUnits="userSpaceOnUse" color-interpolation-filters="sRGB">
<feFlood flood-opacity="0" result="BackgroundImageFix"/>
<feColorMatrix in="SourceAlpha" type="matrix" values="0 0 0 0 0 0 0 0 0 0 0 0 0 0 0 0 0 0 127 0" result="hardAlpha"/>
<feOffset/>
<feGaussianBlur stdDeviation="20"/>
<feComposite in2="hardAlpha" operator="out"/>
<feColorMatrix type="matrix" values="0 0 0 0 0.360784 0 0 0 0 0.886275 0 0 0 0 0.941176 0 0 0 1 0"/>
<feBlend mode="normal" in2="BackgroundImageFix" result="effect1_dropShadow_144_3411"/>
<feBlend mode="normal" in="SourceGraphic" in2="effect1_dropShadow_144_3411" result="shape"/>
</filter>
<linearGradient id="paint0_linear_144_3411" x1="227.093" y1="188.056" x2="327.521" y2="107.811" gradientUnits="userSpaceOnUse">
<stop stop-color="#ABAFBA"/>
<stop offset="1" stop-color="#E0E5EB"/>
</linearGradient>
<linearGradient id="paint1_linear_144_3411" x1="103.091" y1="188.056" x2="2.66267" y2="107.811" gradientUnits="userSpaceOnUse">
<stop stop-color="#ABAFBA"/>
<stop offset="1" stop-color="#E0E5EB"/>
</linearGradient>
<linearGradient id="paint2_linear_144_3411" x1="207.5" y1="157.5" x2="143" y2="311" gradientUnits="userSpaceOnUse">
<stop stop-color="#E0E5EB"/>
<stop offset="1" stop-color="#ABAFBA"/>
</linearGradient>
<linearGradient id="paint3_linear_144_3411" x1="207.5" y1="157.5" x2="143" y2="311" gradientUnits="userSpaceOnUse">
<stop stop-color="#E0E5EB"/>
<stop offset="1" stop-color="#ABAFBA"/>
</linearGradient>
<linearGradient id="paint4_linear_144_3411" x1="88.1224" y1="140.754" x2="165.372" y2="315" gradientUnits="userSpaceOnUse">
<stop stop-color="#E0E5EB"/>
<stop offset="0.923077" stop-color="#ABAFBA"/>
</linearGradient>
<linearGradient id="paint5_linear_144_3411" x1="165" y1="148" x2="165" y2="179" gradientUnits="userSpaceOnUse">
<stop stop-color="#E0E5EB"/>
<stop offset="1" stop-color="#ABAFBA"/>
</linearGradient>
<radialGradient id="paint6_radial_144_3411" cx="0" cy="0" r="1" gradientUnits="userSpaceOnUse" gradientTransform="translate(165 266) rotate(-16.4915) scale(79.2606 13.0785)">
<stop stop-color="#BBBFC4"/>
<stop offset="1" stop-color="#A1A5B0"/>
</radialGradient>
<linearGradient id="paint7_linear_144_3411" x1="55.0054" y1="81" x2="69.5054" y2="81" gradientUnits="userSpaceOnUse">
<stop stop-color="#E0E5EB"/>
<stop offset="1" stop-color="#ABAFBA"/>
</linearGradient>
<linearGradient id="paint8_linear_144_3411" x1="164.005" y1="0" x2="164.005" y2="14" gradientUnits="userSpaceOnUse">
<stop stop-color="#E0E5EB"/>
<stop offset="1" stop-color="#ABAFBA"/>
</linearGradient>
<linearGradient id="paint9_linear_144_3411" x1="274.005" y1="81" x2="261.005" y2="81" gradientUnits="userSpaceOnUse">
<stop stop-color="#E0E5EB"/>
<stop offset="1" stop-color="#ABAFBA"/>
</linearGradient>
<linearGradient id="paint10_linear_144_3411" x1="164.757" y1="14" x2="164.757" y2="150.933" gradientUnits="userSpaceOnUse">
<stop stop-color="#E0E5EB"/>
<stop offset="1" stop-color="#ABAFBA"/>
</linearGradient>
<radialGradient id="paint11_radial_144_3411" cx="0" cy="0" r="1" gradientUnits="userSpaceOnUse" gradientTransform="translate(-9.49076 137.819) scale(8.81882 13.0039)">
<stop stop-color="#9BF5FD"/>
<stop offset="1" stop-color="#5CE2F0"/>
</radialGradient>
<radialGradient id="paint12_radial_144_3411" cx="0" cy="0" r="1" gradientUnits="userSpaceOnUse" gradientTransform="translate(58.5092 137.819) scale(8.81882 13.0039)">
<stop stop-color="#9BF5FD"/>
<stop offset="1" stop-color="#5CE2F0"/>
</radialGradient>
<radialGradient id="paint13_radial_144_3411" cx="0" cy="0" r="1" gradientUnits="userSpaceOnUse" gradientTransform="translate(164.505 117) rotate(90) scale(6 10.5)">
<stop stop-color="#93F4FD"/>
<stop offset="1" stop-color="#60E4F1"/>
</radialGradient>
</defs>
</svg>
